<mxfile host="65bd71144e">
    <diagram id="n-aeaDaPujoFOkvXtMfw" name="Page-1">
        <mxGraphModel dx="555" dy="749" grid="1" gridSize="10" guides="1" tooltips="1" connect="1" arrows="1" fold="1" page="1" pageScale="1" pageWidth="850" pageHeight="1100" math="0" shadow="0">
            <root>
                <mxCell id="0"/>
                <mxCell id="1" parent="0"/>
                <mxCell id="2" value="serbest" style="text;html=1;align=center;verticalAlign=middle;resizable=0;points=[];autosize=1;strokeColor=none;fillColor=none;" vertex="1" parent="1">
                    <mxGeometry x="160" y="65" width="60" height="30" as="geometry"/>
                </mxCell>
                <mxCell id="3" value="denizli" style="text;html=1;align=center;verticalAlign=middle;resizable=0;points=[];autosize=1;strokeColor=none;fillColor=none;" vertex="1" parent="1">
                    <mxGeometry x="160" y="95" width="60" height="30" as="geometry"/>
                </mxCell>
                <mxCell id="4" value="pamukkale" style="text;html=1;align=center;verticalAlign=middle;resizable=0;points=[];autosize=1;strokeColor=none;fillColor=none;" vertex="1" parent="1">
                    <mxGeometry x="150" y="140" width="80" height="30" as="geometry"/>
                </mxCell>
                <mxCell id="5" value="duzenleme tarihi" style="text;html=1;align=center;verticalAlign=middle;resizable=0;points=[];autosize=1;strokeColor=none;fillColor=none;" vertex="1" parent="1">
                    <mxGeometry x="135" y="210" width="110" height="30" as="geometry"/>
                </mxCell>
                <mxCell id="6" value="vade tarihi" style="text;html=1;align=center;verticalAlign=middle;resizable=0;points=[];autosize=1;strokeColor=none;fillColor=none;" vertex="1" parent="1">
                    <mxGeometry x="160" y="240" width="80" height="30" as="geometry"/>
                </mxCell>
                <mxCell id="7" value="seri sira no" style="text;html=1;align=center;verticalAlign=middle;resizable=0;points=[];autosize=1;strokeColor=none;fillColor=none;" vertex="1" parent="1">
                    <mxGeometry x="150" y="270" width="80" height="30" as="geometry"/>
                </mxCell>
                <mxCell id="8" value="fatura not" style="text;html=1;align=center;verticalAlign=middle;resizable=0;points=[];autosize=1;strokeColor=none;fillColor=none;" vertex="1" parent="1">
                    <mxGeometry x="155" y="310" width="70" height="30" as="geometry"/>
                </mxCell>
                <mxCell id="9" value="odeme tahsilat durumu {acik kapali fatura}" style="text;html=1;align=center;verticalAlign=middle;resizable=0;points=[];autosize=1;strokeColor=none;fillColor=none;" vertex="1" parent="1">
                    <mxGeometry x="65" y="340" width="250" height="30" as="geometry"/>
                </mxCell>
                <mxCell id="10" value="" style="whiteSpace=wrap;html=1;fillColor=none;movable=0;resizable=0;rotatable=0;deletable=0;editable=0;connectable=0;" vertex="1" parent="1">
                    <mxGeometry x="60" y="60" width="730" height="320" as="geometry"/>
                </mxCell>
                <mxCell id="11" value="" style="whiteSpace=wrap;html=1;fillColor=none;movable=0;resizable=0;rotatable=0;deletable=0;editable=0;connectable=0;" vertex="1" parent="1">
                    <mxGeometry x="60" y="420" width="730" height="320" as="geometry"/>
                </mxCell>
                <mxCell id="12" value="sira" style="text;html=1;align=center;verticalAlign=middle;resizable=0;points=[];autosize=1;strokeColor=none;fillColor=none;" vertex="1" parent="1">
                    <mxGeometry x="80" y="440" width="40" height="30" as="geometry"/>
                </mxCell>
                <mxCell id="13" value="urun hizmet" style="text;html=1;align=center;verticalAlign=middle;resizable=0;points=[];autosize=1;strokeColor=none;fillColor=none;" vertex="1" parent="1">
                    <mxGeometry x="110" y="440" width="90" height="30" as="geometry"/>
                </mxCell>
                <mxCell id="14" value="depo" style="text;html=1;align=center;verticalAlign=middle;resizable=0;points=[];autosize=1;strokeColor=none;fillColor=none;" vertex="1" parent="1">
                    <mxGeometry x="280" y="440" width="50" height="30" as="geometry"/>
                </mxCell>
                <mxCell id="15" value="miktar" style="text;html=1;align=center;verticalAlign=middle;resizable=0;points=[];autosize=1;strokeColor=none;fillColor=none;" vertex="1" parent="1">
                    <mxGeometry x="335" y="440" width="60" height="30" as="geometry"/>
                </mxCell>
                <mxCell id="16" value="birim fiyat" style="text;html=1;align=center;verticalAlign=middle;resizable=0;points=[];autosize=1;strokeColor=none;fillColor=none;" vertex="1" parent="1">
                    <mxGeometry x="450" y="440" width="70" height="30" as="geometry"/>
                </mxCell>
                <mxCell id="17" value="iskonto" style="text;html=1;align=center;verticalAlign=middle;resizable=0;points=[];autosize=1;strokeColor=none;fillColor=none;" vertex="1" parent="1">
                    <mxGeometry x="525" y="440" width="60" height="30" as="geometry"/>
                </mxCell>
                <mxCell id="18" value="KDV" style="text;html=1;align=center;verticalAlign=middle;resizable=0;points=[];autosize=1;strokeColor=none;fillColor=none;" vertex="1" parent="1">
                    <mxGeometry x="605" y="440" width="50" height="30" as="geometry"/>
                </mxCell>
                <mxCell id="19" value="vergi dahil fiyat" style="text;html=1;align=center;verticalAlign=middle;resizable=0;points=[];autosize=1;strokeColor=none;fillColor=none;" vertex="1" parent="1">
                    <mxGeometry x="655" y="440" width="100" height="30" as="geometry"/>
                </mxCell>
                <mxCell id="20" value="toplam" style="text;html=1;align=center;verticalAlign=middle;resizable=0;points=[];autosize=1;strokeColor=none;fillColor=none;" vertex="1" parent="1">
                    <mxGeometry x="755" y="440" width="60" height="30" as="geometry"/>
                </mxCell>
                <mxCell id="21" value="ara toplam" style="text;html=1;align=center;verticalAlign=middle;resizable=0;points=[];autosize=1;strokeColor=none;fillColor=none;" vertex="1" parent="1">
                    <mxGeometry x="515" y="535" width="80" height="30" as="geometry"/>
                </mxCell>
                <mxCell id="22" value="KDV toplam" style="text;html=1;align=center;verticalAlign=middle;resizable=0;points=[];autosize=1;strokeColor=none;fillColor=none;" vertex="1" parent="1">
                    <mxGeometry x="510" y="590" width="90" height="30" as="geometry"/>
                </mxCell>
                <mxCell id="23" value="vergili dahil toplam" style="text;html=1;align=center;verticalAlign=middle;resizable=0;points=[];autosize=1;strokeColor=none;fillColor=none;" vertex="1" parent="1">
                    <mxGeometry x="490" y="640" width="120" height="30" as="geometry"/>
                </mxCell>
                <mxCell id="24" value="odenecek tutar" style="text;html=1;align=center;verticalAlign=middle;resizable=0;points=[];autosize=1;strokeColor=none;fillColor=none;" vertex="1" parent="1">
                    <mxGeometry x="495" y="690" width="100" height="30" as="geometry"/>
                </mxCell>
            </root>
        </mxGraphModel>
    </diagram>
</mxfile>